<?xml version="1.0"?>
<svg xmlns="http://www.w3.org/2000/svg" xmlns:xlink="http://www.w3.org/1999/xlink" viewBox="0 0 500 144">
  <defs>
    <linearGradient id="Heliatek_Logo_Deep_Purple_Gradient_RGB" x1="-18.8037" y1="98.5022" x2="95.934" y2="30.0057" gradientUnits="userSpaceOnUse">
      <stop offset="0" stop-color="#080068"></stop>
      <stop offset="1" stop-color="#8e35ff"></stop>
    </linearGradient>
  </defs>
  <path class="navbar-brand-image__shape" d="M68.4331,15.2127c-.3808,16.9347-3.7919,31.777-8.9563,47.0505-.6276-2.8412-7.6187-34.4147-10.495-47.9778l-10.4004-3.1092c3.1246,15.7371,20.9156,93.6903,25.1618,118.8238h9.6915c-3.0949-17.0853-6.5322-33.6638-10.1533-50.3759,8.3736-21.6243,14.517-41.8076,14.7185-66.3489l-9.5669,1.9375ZM1.196,0c4.1746,22.9487,9.8743,48.8776,15.6077,73.9008C6.756,90.785,1.632,110.3551,0,130H9.5711c1.2894-14.6406,4.6244-28.9598,10.5184-41.8562,1.2883,5.5536,7.8936,33.8756,9.7233,41.8562h9.7808c-1.9867-8.6973-22.6895-95.6876-28.1348-126.932L1.196,0ZM56.7702,130h-9.767c-2.8565-12.8455-20.8488-93.0746-27.6488-124.5716l10.4293,3.1178c6.3591,29.3476,23.9633,107.8459,26.9865,121.4538Z" fill="url(#Heliatek_Logo_Deep_Purple_Gradient_RGB)" fill-rule="evenodd"></path>
  <path class="navbar-brand-image__brand" d="M344.9718,141.9826h6.6157v1.7879h-8.6866v-13.7722h8.6067v1.7891h-6.5358v4.1964h6.0872v1.7813h-6.0872v4.2176Zm22.7026-1.8704h-.1277l-6.9855-10.1139h-1.9165v13.7722h2.0709v-10.1005h.1277l6.9777,10.1005h1.9043v-13.7722h-2.0508v10.1139Zm28.7871,3.6583h2.072v-6.0055h5.8318v-1.7813h-5.8318v-4.1964h6.4415v-1.7891h-8.5135v13.7722Zm-67.2335-6.0055h6.0861v-1.7813h-6.0861v-4.1964h6.5358v-1.7891h-8.6077v13.7722h8.6877v-1.7879h-6.6157v-4.2176Zm91.4646,1.124c0,.6227-.1365,1.1763-.4086,1.6609-.2687,.4835-.6573,.8644-1.1671,1.1429-.5052,.2729-1.1059,.4099-1.8032,.4099-.6929,0-1.2914-.137-1.7966-.4099-.5041-.2785-.8961-.6595-1.1725-1.1429-.2732-.4846-.4087-1.0383-.4087-1.6609v-8.8907h-2.072v9.059c0,.9636,.2254,1.818,.6773,2.5622,.4509,.7397,1.086,1.3223,1.9032,1.7478,.8184,.4222,1.7745,.6328,2.8693,.6328,1.0993,0,2.0586-.2105,2.8759-.6328,.8184-.4255,1.4523-1.0081,1.9044-1.7478,.4508-.7442,.6762-1.5986,.6762-2.5622v-9.059h-2.0776v8.8907Zm-102.9458-.692l3.0416,5.5734h-2.3596l-2.7911-5.2169c-.0451,.0007-.0857,.0057-.1314,.0057h-2.8149v5.2112h-2.072v-13.7722h4.8935c1.0637,0,1.9465,.1838,2.6483,.5514,.7062,.3677,1.2336,.8767,1.5823,1.5262,.3487,.6461,.523,1.3925,.523,2.2391,0,.8433-.1766,1.5851-.5297,2.2269-.3487,.636-.8761,1.1318-1.5823,1.486-.1277,.0645-.2681,.1165-.4078,.1692Zm.1391-2.5565c.1976-.3676,.2953-.8099,.2953-1.3256,0-.5192-.1-.9703-.3021-1.3513-.1965-.3809-.5063-.6729-.9316-.8745-.4197-.2061-.9716-.3086-1.6555-.3086h-2.6006v4.9896h2.6272c.6707,0,1.2159-.0969,1.6356-.2897,.4253-.1927,.7352-.4723,.9317-.8399Zm111.5611-3.8533h4.2761v11.9832h2.0654v-11.9832h4.2828v-1.7891h-10.6243v1.7891Zm54.408,5.9777h6.0872v-1.7813h-6.0872v-4.1964h6.5358v-1.7891h-8.6066v13.7722h8.6877v-1.7879h-6.6168v-4.2176Zm-185.6303,.6729h3.3803c-.0138,.7129-.157,1.3421-.4511,1.876-.3042,.5558-.735,.987-1.2936,1.2922-.5541,.3041-1.2048,.4568-1.951,.4568-.8039,0-1.5212-.1994-2.1519-.5983-.6296-.3988-1.126-.9847-1.488-1.7556-.3619-.7709-.5429-1.7145-.5429-2.8307,0-1.1129,.1787-2.0519,.5363-2.8184,.362-.7709,.8539-1.3557,1.4746-1.7556,.6208-.3989,1.3181-.5982,2.092-.5982,.4553,0,.8728,.0601,1.2526,.1815,.3853,.1215,.7262,.2986,1.0259,.5314,.2999,.2284,.5564,.5069,.7707,.8344,.2198,.322,.3942,.6873,.523,1.0961h2.1253c-.1166-.6728-.3398-1.2844-.6707-1.8358-.3309-.5559-.7484-1.036-1.2537-1.4393-.4997-.4044-1.0726-.7152-1.7155-.9346-.6396-.2206-1.3292-.3298-2.0721-.3298-.8882,0-1.7089,.1638-2.4595,.4902-.7462,.323-1.3969,.7921-1.951,1.4059-.5496,.6093-.976,1.3524-1.2803,2.2257-.3043,.8745-.4553,1.8615-.4553,2.9598,0,1.4527,.2609,2.707,.7839,3.7653,.523,1.0538,1.2515,1.8682,2.1853,2.4419,.9382,.5737,2.0286,.86,3.2712,.86,1.1082,0,2.092-.2306,2.9492-.6918,.8628-.4623,1.5379-1.1162,2.0242-1.964,.4919-.8522,.7373-1.8559,.7373-3.0134v-1.5663h-5.3954v1.7145Zm157.4211,.4512c0,.6227-.1366,1.1763-.4086,1.6609-.2676,.4835-.6574,.8644-1.1659,1.1429-.5052,.2729-1.1071,.4099-1.8033,.4099-.6929,0-1.2914-.137-1.7966-.4099-.5052-.2785-.8961-.6595-1.1737-1.1429-.272-.4846-.4086-1.0383-.4086-1.6609v-8.8907h-2.0709v9.059c0,.9636,.2254,1.818,.6763,2.5622,.4519,.7397,1.086,1.3223,1.9044,1.7478,.8172,.4222,1.7744,.6328,2.8693,.6328,1.0992,0,2.0575-.2105,2.8748-.6328,.8184-.4255,1.4524-1.0081,1.9044-1.7478,.4509-.7442,.6774-1.5986,.6774-2.5622v-9.059h-2.0787v8.8907Zm16.6998-.6919l3.0426,5.5734h-2.3596l-2.7921-5.2169c-.0447,.0006-.0851,.0056-.1305,.0056h-2.816v5.2112h-2.0709v-13.7722h4.8935c1.0638,0,1.9454,.1838,2.6472,.5514,.7062,.3677,1.2336,.8767,1.5823,1.5262,.3486,.6461,.523,1.3925,.523,2.2391,0,.8433-.1766,1.5851-.5297,2.2269-.3486,.636-.8761,1.1318-1.5823,1.486-.1277,.0645-.2681,.1165-.4077,.1693Zm.1401-2.5565c.1965-.3676,.2942-.8099,.2942-1.3256,0-.5192-.0999-.9703-.3009-1.3513-.1965-.3809-.5074-.6729-.9316-.8745-.4208-.2061-.9727-.3086-1.6556-.3086h-2.6017v4.9896h2.6283c.6696,0,1.2148-.0969,1.6356-.2897,.4241-.1927,.7351-.4723,.9316-.8399Zm-340.2577-2.4552c.5186,1.0226,.7773,2.2491,.7773,3.6783,0,1.4348-.261,2.668-.784,3.6996-.5186,1.0305-1.2692,1.8247-2.2518,2.3806-.9838,.5515-2.1719,.8266-3.5667,.8266h-4.4438v-13.7722h4.5848c1.3447,0,2.5006,.2751,3.4656,.8265,.9648,.5469,1.7044,1.3346,2.2185,2.3606Zm-1.2603,3.6783c0-1.0795-.1722-1.9963-.5164-2.7505-.3386-.753-.8461-1.3245-1.5212-1.7144-.6751-.3898-1.5124-.5848-2.5139-.5848h-2.3862v10.1406h2.2585c1.046,0,1.9154-.1972,2.6083-.5916,.6929-.3988,1.2103-.9747,1.5545-1.7278,.3442-.7575,.5164-1.6821,.5164-2.7716Zm11.0556,.9012h6.0861v-1.7813h-6.0861v-4.1964h6.5358v-1.7891h-8.6078v13.7722h8.6877v-1.7879h-6.6157v-4.2176Zm22.7959-5.5811c.3475,.6718,.5219,1.4304,.5219,2.2726,0,.8477-.1766,1.6097-.5286,2.287-.3487,.6729-.8761,1.2053-1.5823,1.6008-.7018,.3898-1.5845,.5848-2.6483,.5848h-2.8149v4.8414h-2.072v-13.7722h4.8935c1.0682,0,1.9531,.1949,2.6549,.5848,.7018,.39,1.227,.9235,1.5757,1.6008Zm-1.5623,2.2726c0-.5203-.0988-.9814-.2953-1.3848-.1965-.4043-.5063-.7196-.9317-.9491-.4197-.2284-.9738-.342-1.6622-.342h-2.6006v5.3862h2.6272c.6751,0,1.2226-.1169,1.6423-.3499,.4208-.2372,.7285-.5603,.925-.968s.2953-.8723,.2953-1.3925Zm-50.7413,5.6557h-.1277l-6.9844-10.1139h-1.9172v13.7722h2.0714v-10.1005h.1273l6.9783,10.1005h1.9032v-13.7722h-2.0509v10.1139Zm61.6959-2.3472h6.0861v-1.7813h-6.0861v-4.1964h6.5358v-1.7891h-8.6078v13.7722h8.6877v-1.7879h-6.6157v-4.2176Zm-80.2113-7.7667v13.7722h2.0713v-13.7722h-2.0713Zm122.6251,3.1871c.5186,1.0226,.7784,2.2491,.7784,3.6783,0,1.4348-.2621,2.668-.7851,3.6996-.5185,1.0305-1.2692,1.8247-2.2519,2.3806-.9838,.5515-2.1719,.8266-3.5665,.8266h-4.4438v-13.7722h4.5848c1.3447,0,2.5005,.2751,3.4655,.8265,.965,.5469,1.7045,1.3346,2.2186,2.3606Zm-1.2603,3.6783c0-1.0795-.1721-1.9963-.5164-2.7505-.3387-.753-.8461-1.3245-1.5212-1.7144-.6752-.3898-1.5123-.5848-2.5139-.5848h-2.3863v10.1406h2.2597c1.0449,0,1.9143-.1972,2.6072-.5916,.6929-.3988,1.2114-.9747,1.5546-1.7278,.3442-.7575,.5164-1.6821,.5164-2.7716Zm33.7572,3.2484h-.1277l-6.9844-10.1139h-1.9177v13.7722h2.072v-10.1005h.1277l6.9777,10.1005h1.9032v-13.7722h-2.0508v10.1139Zm8.7661-8.3248h4.2761v11.9832h2.0654v-11.9832h4.2828v-1.7891h-10.6242v1.7891Zm-60.9753,8.3248h-.1266l-6.9855-10.1139h-1.9177v13.7722h2.072v-10.1005h.1277l6.9777,10.1005h1.9044v-13.7722h-2.052v10.1139Zm29.5077-2.3472h6.0861v-1.7813h-6.0861v-4.1964h6.5358v-1.7891h-8.6078v13.7722h8.6877v-1.7879h-6.6158v-4.2176Zm47.5675,3.45c-.7411,0-1.3418,.6007-1.3418,1.3418s.6007,1.3418,1.3418,1.3418,1.3418-.6007,1.3418-1.3418-.6007-1.3418-1.3418-1.3418Zm104.26,0c-.7411,0-1.3418,.6007-1.3418,1.3418s.6007,1.3418,1.3418,1.3418,1.3418-.6007,1.3418-1.3418-.6007-1.3418-1.3418-1.3418Zm120.4101,0c-.7411,0-1.3418,.6007-1.3418,1.3418s.6008,1.3418,1.3418,1.3418,1.3418-.6007,1.3418-1.3418-.6007-1.3418-1.3418-1.3418Z"></path>
  <path class="navbar-brand-image__claim" d="M103.5285,113h-9.5285V46h9.5285V113Zm5.2682-41.0666h33.1666v-25.9334h9.5746V113h-9.5286v-31.498h-33.2126v-9.5686Zm108.0239,31.4526v9.6139h-38.5259c-9.5286-.0907-14.3389-4.8067-14.4308-14.1464v-19.5034c0-9.5838,4.8103-14.391,14.4308-14.4215h24.0962c9.5286,.061,14.3378,4.0594,14.4297,11.995v15.0167h-38.0686v-9.7974h28.4032l.046-3.9831c-.0314-2.4113-1.6341-3.6168-4.8103-3.6168h-21.5767c-4.8865,0-7.3297,2.2891-7.3297,6.8674v14.8793c0,4.7614,2.1687,7.1269,6.5048,7.0963h36.8313Zm12.2991-57.3861h9.6194V113h-9.6194V46Zm22.5383,18.5625h9.7113v48.4375h-9.7113v-48.4375Zm9.7573-8.6735h-9.8951v-9.889h9.8951v9.889Zm87.6383,8.8566v-18.7456h9.6206v18.7456h14.4308v9.6144h-14.4308v38.64h-9.6206v-38.5943h-14.4297v-9.6601h14.4297Zm84.3377,38.6405v9.6139h-38.527c-9.5286-.0907-14.3389-4.8067-14.4297-14.1464v-19.5034c0-9.5838,4.8092-14.391,14.4297-14.4215h24.0962c9.5287,.061,14.3389,4.0594,14.4308,11.995v15.0167h-38.0686v-9.7974h28.4021l.046-3.9831c-.0303-2.4113-1.6341-3.6168-4.8103-3.6168h-21.5767c-4.8865,0-7.3297,2.2891-7.3297,6.8674v14.8793c0,4.7614,2.1687,7.1269,6.506,7.0963h36.8313Zm11.1773-57.3861h9.6206V113h-9.6206V46Zm41.5048,67l-27.074-25.9582,25.9286-22.0672h14.7962l-26.341,22.4792,26.6167,25.5463h-13.9265Zm-174.862-48.0713h-33.6248v9.5685h31.9762c4.3059,0,6.4589,2.5333,6.4589,7.5999l.046,21.2889h-27.2578c-4.2756,0-6.4589-1.9991-6.4589-5.9975,.0303-3.7542,2.3513-5.6313,6.9633-5.6313h21.1642v-9.6143h-25.4243c-8.1849,.0305-12.2778,4.1052-12.2778,12.2239v6.6385c0,7.9967,4.4281,11.9946,13.2854,11.9946h39.6264v-33.9703c-.0616-9.4008-4.8865-14.101-14.4767-14.101Z"></path>
</svg>
